<svg width="60" height="60" viewBox="0 0 60 60" fill="none" xmlns="http://www.w3.org/2000/svg">
<rect x="0.5" y="0.5" width="59" height="59" rx="19.5" stroke="#E2554F"/>
<path d="M36.6667 40H23.3334V36.6667H36.6667V40ZM36.6667 30H23.3334V33.3334H36.6667V30ZM40.0001 15H36.6667V18.3334H40.0001V43.3334H20.0001V18.3334H23.3334V15H20.0001C19.116 15 18.2682 15.3512 17.6431 15.9764C17.0179 16.6015 16.6667 17.4493 16.6667 18.3334V43.3334C16.6667 44.2174 17.0179 45.0653 17.6431 45.6904C18.2682 46.3155 19.116 46.6667 20.0001 46.6667H40.0001C40.8841 46.6667 41.732 46.3155 42.3571 45.6904C42.9822 45.0653 43.3334 44.2174 43.3334 43.3334V18.3334C43.3334 17.4493 42.9822 16.6015 42.3571 15.9764C41.732 15.3512 40.8841 15 40.0001 15ZM33.3334 18.3334V16.6667C33.3334 15.7827 32.9822 14.9348 32.3571 14.3097C31.732 13.6846 30.8841 13.3334 30.0001 13.3334C29.116 13.3334 28.2682 13.6846 27.6431 14.3097C27.0179 14.9348 26.6667 15.7827 26.6667 16.6667V18.3334C25.7827 18.3334 24.9348 18.6846 24.3097 19.3097C23.6846 19.9348 23.3334 20.7827 23.3334 21.6667V23.3334H36.6667V21.6667C36.6667 20.7827 36.3156 19.9348 35.6904 19.3097C35.0653 18.6846 34.2175 18.3334 33.3334 18.3334Z" fill="#E2554F"/>
</svg>
