<svg width="60" height="60" viewBox="0 0 60 60" fill="none" xmlns="http://www.w3.org/2000/svg">
<rect x="0.5" y="0.5" width="59" height="59" rx="19.5" stroke="#E2554F"/>
<path d="M45 22.5H37.5V17.5C37.5 16.837 37.2366 16.2011 36.7678 15.7322C36.2989 15.2634 35.663 15 35 15H25C24.337 15 23.7011 15.2634 23.2322 15.7322C22.7634 16.2011 22.5 16.837 22.5 17.5V22.5H15C14.337 22.5 13.7011 22.7634 13.2322 23.2322C12.7634 23.7011 12.5 24.337 12.5 25V42.5C12.5 43.163 12.7634 43.7989 13.2322 44.2678C13.7011 44.7366 14.337 45 15 45H45C45.663 45 46.2989 44.7366 46.7678 44.2678C47.2366 43.7989 47.5 43.163 47.5 42.5V25C47.5 24.337 47.2366 23.7011 46.7678 23.2322C46.2989 22.7634 45.663 22.5 45 22.5ZM25 17.5H35V22.5H25V17.5ZM15 42.5V25H45V42.5H15Z" fill="#E2554F"/>
</svg>
